<svg width="254" height="84" viewBox="0 0 254 84" fill="none" xmlns="http://www.w3.org/2000/svg">
<path d="M55.5489 26.7627C54.9516 26.7632 54.4181 26.5503 53.9484 26.124C53.5214 25.6976 53.3076 25.1645 53.3071 24.5245C53.3067 23.9271 53.5196 23.415 53.9459 22.988C54.4149 22.5609 54.9481 22.3472 55.5454 22.3467C56.1428 22.3463 56.6549 22.5592 57.0819 22.9855C57.5516 23.4118 57.7867 23.9236 57.7871 24.521C57.7876 25.161 57.5534 25.6945 57.0844 26.1215C56.6581 26.5485 56.1462 26.7623 55.5489 26.7627ZM54.53 33.3555L56.578 33.3539L56.6005 62.1539L54.5525 62.1555L54.53 33.3555ZM67.1295 14.1457L69.1775 14.1441C76.8149 14.1381 82.7045 16.2242 86.8464 20.4023C91.031 24.5377 93.1263 30.4454 93.1323 38.1254C93.1357 42.52 92.0722 46.5529 89.9417 50.2239C87.8113 53.8949 84.9122 56.7985 81.2445 58.9347C77.6195 61.0708 73.6097 62.1406 69.215 62.1441L67.167 62.1457L67.1295 14.1457ZM69.7255 60.1597C73.6508 60.1566 77.2341 59.1938 80.4752 57.2713C83.7164 55.3061 86.2743 52.6374 88.149 49.2653C90.0663 45.8931 91.0234 42.1804 91.0203 38.127C91.0148 31.0444 89.1545 25.6058 85.4395 21.8114C81.7672 17.9743 76.5177 16.0584 69.691 16.0637L69.179 16.0641L69.2135 60.1601L69.7255 60.1597ZM114.221 61.0849C116.439 61.0832 118.551 60.5055 120.555 59.352C122.56 58.1984 124.223 56.6184 125.544 54.6121L125.546 57.8761C123.969 59.6266 122.242 60.908 120.365 61.7201C118.488 62.4896 116.355 62.8753 113.966 62.8771C111.321 62.8792 108.824 62.1771 106.476 60.771C104.171 59.3648 102.314 57.4889 100.904 55.1433C99.5369 52.7977 98.8523 50.3023 98.8502 47.6569C98.848 44.7983 99.5287 42.2377 100.892 39.9753C102.256 37.6703 104.11 35.8768 106.456 34.595C108.844 33.3131 111.489 32.671 114.391 32.6688C118.828 32.6653 122.605 34.4117 125.723 37.9079L105.642 57.7636C107.051 58.9145 108.417 59.7668 109.74 60.3204C111.063 60.8314 112.557 61.0862 114.221 61.0849ZM100.898 47.4633C100.901 51.0047 102.077 54.0331 104.425 56.5486L123.163 37.9099C121.754 36.6737 120.388 35.8001 119.065 35.2891C117.741 34.7355 116.163 34.4594 114.328 34.4608C111.725 34.4629 109.4 35.0407 107.353 36.1943C105.349 37.3052 103.771 38.8424 102.621 40.806C101.47 42.7695 100.896 44.9887 100.898 47.4633ZM146.041 75.3961C143.609 75.398 141.241 74.8452 138.936 73.7376C136.631 72.6301 134.838 71.1808 133.557 69.3898L133.554 66.4458C134.665 68.493 136.395 70.1983 138.742 71.5618C141.133 72.9252 143.565 73.606 146.04 73.6041C150.136 73.6009 153.292 72.3824 155.509 69.9487C157.726 67.5576 158.833 64.0368 158.829 59.3861L158.826 55.0981C157.675 57.403 155.863 59.2817 153.39 60.7343C150.959 62.1442 148.4 62.8502 145.712 62.8523C142.981 62.8545 140.442 62.1738 138.094 60.8103C135.746 59.4468 133.889 57.6136 132.522 55.3106C131.155 52.965 130.47 50.4482 130.468 47.7602C130.466 45.0722 131.146 42.5757 132.51 40.2706C133.873 37.9229 135.728 36.0655 138.074 34.6983C140.419 33.3311 142.957 32.6465 145.688 32.6443C148.504 32.6421 151.107 33.3441 153.498 34.7502C155.888 36.1564 157.66 38.0537 158.814 40.4421L158.809 33.2741L160.857 33.2725L160.877 59.3845C160.881 64.6325 159.604 68.6015 157.046 71.2915C154.531 74.0241 150.863 75.3923 146.041 75.3961ZM145.838 61.0602C148.185 61.0584 150.36 60.4594 152.365 59.2631C154.369 58.0242 155.947 56.4017 157.097 54.3954C158.29 52.3465 158.886 50.1274 158.884 47.738C158.882 45.3487 158.283 43.1518 157.087 41.1474C155.933 39.1003 154.353 37.4802 152.347 36.2871C150.341 35.0514 148.164 34.4344 145.817 34.4362C143.428 34.4381 141.21 35.0585 139.163 36.2974C137.158 37.4937 135.538 39.1163 134.303 41.1652C133.11 43.1715 132.514 45.3693 132.516 47.7586C132.518 50.148 133.117 52.3662 134.313 54.4132C135.552 56.4176 137.175 58.0377 139.181 59.2734C141.23 60.4665 143.449 61.0621 145.838 61.0602ZM182.524 62.7596C179.793 62.7617 177.254 62.081 174.906 60.7175C172.559 59.354 170.701 57.5208 169.334 55.2179C167.967 52.8723 167.282 50.3555 167.28 47.6675C167.278 44.9795 167.959 42.483 169.322 40.1779C170.686 37.8302 172.54 35.9727 174.886 34.6055C177.232 33.2384 179.77 32.5537 182.5 32.5516C185.274 32.5494 187.898 33.294 190.374 34.7854C192.85 36.2342 194.579 38.1315 195.563 40.4774L195.557 33.2454L197.605 33.2438L197.627 62.0438L195.579 62.0454L195.574 54.8774C194.424 57.2676 192.633 59.189 190.202 60.6416C187.814 62.0515 185.255 62.7575 182.524 62.7596ZM182.651 60.9675C184.997 60.9657 187.173 60.3666 189.177 59.1704C191.182 57.9315 192.759 56.3089 193.909 54.3027C195.103 52.2538 195.698 50.0346 195.696 47.6453C195.694 45.2986 195.095 43.1018 193.899 41.0547C192.703 39.0076 191.102 37.3875 189.095 36.1944C187.089 34.9587 184.913 34.3417 182.566 34.3435C180.219 34.3454 178.022 34.9658 175.975 36.2047C173.971 37.4436 172.351 39.0875 171.115 41.1365C169.922 43.1854 169.326 45.3832 169.328 47.7299C169.33 50.0766 169.929 52.2734 171.125 54.3205C172.364 56.3249 174.008 57.9449 176.057 59.1806C178.106 60.3737 180.304 60.9693 182.651 60.9675Z" fill="white"/>
<path d="M32.4688 43.2813L28.4063 29.4844C28.3464 29.2905 28.2262 29.1208 28.0632 29C27.9002 28.8791 27.7029 28.8135 27.5 28.8125H12.5C12.2971 28.8135 12.0998 28.8791 11.9368 29C11.7738 29.1208 11.6536 29.2905 11.5938 29.4844L7.53128 43.2813C7.21052 44.3556 7.2882 45.5096 7.75003 46.5313C8.75292 48.7401 10.3331 50.6375 12.324 52.0234C14.315 53.4094 16.6429 54.2326 19.0625 54.4063V61.3125H13.75C13.5014 61.3125 13.2629 61.4113 13.0871 61.5871C12.9113 61.7629 12.8125 62.0014 12.8125 62.25C12.8125 62.4987 12.9113 62.7371 13.0871 62.9129C13.2629 63.0888 13.5014 63.1875 13.75 63.1875H26.25C26.4987 63.1875 26.7371 63.0888 26.9129 62.9129C27.0888 62.7371 27.1875 62.4987 27.1875 62.25C27.1875 62.0014 27.0888 61.7629 26.9129 61.5871C26.7371 61.4113 26.4987 61.3125 26.25 61.3125H20.9375V54.4063C23.3571 54.2326 25.6851 53.4094 27.676 52.0234C29.6669 50.6375 31.2471 48.7401 32.25 46.5313C32.7119 45.5096 32.7895 44.3556 32.4688 43.2813ZM13.2032 30.6875H26.7969L30.2032 42.1875C28.5313 42.9532 25.1563 43.7813 20.4219 41.4063C16.0782 39.25 12.6875 39.4219 10.4219 40.0782L13.2032 30.6875ZM30.5469 45.7657C29.6286 47.7932 28.1454 49.513 26.2749 50.7193C24.4044 51.9256 22.2258 52.5671 20 52.5671C17.7743 52.5671 15.5957 51.9256 13.7251 50.7193C11.8546 49.513 10.3714 47.7932 9.45315 45.7657C9.18565 45.149 9.14145 44.4583 9.32815 43.8125L9.76565 42.3282C11.5157 41.5 14.8594 40.7344 19.5782 43.0938C22.2188 44.4063 24.5313 44.8594 26.4219 44.8594C27.8959 44.8652 29.3564 44.5784 30.7188 44.0157C30.8425 44.6028 30.7825 45.2138 30.5469 45.7657Z" fill="white"/>
</svg>
