<svg width="48" height="48" viewBox="0 0 48 48" fill="none" xmlns="http://www.w3.org/2000/svg">
<path d="M38.9625 20.7375L34.0875 4.18125C34.0157 3.94861 33.8714 3.74496 33.6758 3.59995C33.4803 3.45494 33.2435 3.37613 33 3.375H15C14.7565 3.37613 14.5198 3.45494 14.3242 3.59995C14.1286 3.74496 13.9843 3.94861 13.9125 4.18125L9.0375 20.7375C8.6526 22.0267 8.74581 23.4115 9.3 24.6375C10.5035 27.2881 12.3997 29.5649 14.7888 31.2281C17.1779 32.8912 19.9715 33.8791 22.875 34.0875V42.375H16.5C16.2016 42.375 15.9155 42.4935 15.7045 42.7045C15.4935 42.9155 15.375 43.2016 15.375 43.5C15.375 43.7984 15.4935 44.0845 15.7045 44.2955C15.9155 44.5065 16.2016 44.625 16.5 44.625H31.5C31.7984 44.625 32.0845 44.5065 32.2955 44.2955C32.5065 44.0845 32.625 43.7984 32.625 43.5C32.625 43.2016 32.5065 42.9155 32.2955 42.7045C32.0845 42.4935 31.7984 42.375 31.5 42.375H25.125V34.0875C28.0285 33.8791 30.8221 32.8912 33.2112 31.2281C35.6003 29.5649 37.4965 27.2881 38.7 24.6375C39.2542 23.4115 39.3474 22.0267 38.9625 20.7375ZM15.8438 5.625H32.1563L36.2438 19.425C34.2375 20.3438 30.1875 21.3375 24.5063 18.4875C19.2938 15.9 15.225 16.1062 12.5062 16.8937L15.8438 5.625ZM36.6563 23.7188C35.5543 26.1518 33.7745 28.2156 31.5299 29.6631C29.2852 31.1107 26.6709 31.8805 24 31.8805C21.3291 31.8805 18.7148 31.1107 16.4701 29.6631C14.2255 28.2156 12.4457 26.1518 11.3438 23.7188C11.0228 22.9787 10.9697 22.1499 11.1938 21.375L11.7188 19.5938C13.8188 18.6 17.8313 17.6813 23.4938 20.5125C26.6625 22.0875 29.4375 22.6312 31.7063 22.6312C33.4751 22.6382 35.2277 22.294 36.8625 21.6188C37.011 22.3233 36.939 23.0565 36.6563 23.7188Z" fill="white"/>
</svg>
